<svg width="96" height="96" viewBox="0 0 96 96" fill="none" xmlns="http://www.w3.org/2000/svg">
  <defs>
    <linearGradient id="bg" x1="16" y1="10" x2="80" y2="86" gradientUnits="userSpaceOnUse">
      <stop stop-color="#72E6A0" />
      <stop offset="1" stop-color="#2F6B46" />
    </linearGradient>
    <linearGradient id="die" x1="52" y1="24" x2="74" y2="48" gradientUnits="userSpaceOnUse">
      <stop stop-color="#F6FFF8" />
      <stop offset="1" stop-color="#D8F6E2" />
    </linearGradient>
  </defs>
  <rect x="6" y="6" width="84" height="84" rx="24" fill="url(#bg)" />
  <path
    d="M26 21C26 17.6863 28.6863 15 32 15H64C67.3137 15 70 17.6863 70 21V23C70 26.3137 67.3137 29 64 29H32C28.6863 29 26 26.3137 26 23V21Z"
    fill="#FFFFFF"
    fill-opacity="0.16"
  />
  <path
    d="M24 28C24 23.5817 27.5817 20 32 20H36C40.4183 20 44 23.5817 44 28V54C44 58.4183 47.5817 62 52 62H62C66.4183 62 70 65.5817 70 70C70 74.4183 66.4183 78 62 78H32C27.5817 78 24 74.4183 24 70V28Z"
    fill="#F8FFF9"
  />
  <path
    d="M52 24C52 20.6863 54.6863 18 58 18H72C75.3137 18 78 20.6863 78 24V38C78 41.3137 75.3137 44 72 44H58C54.6863 44 52 41.3137 52 38V24Z"
    fill="url(#die)"
  />
  <circle cx="60" cy="26" r="3.25" fill="#2F6B46" />
  <circle cx="70" cy="31" r="3.25" fill="#2F6B46" />
  <circle cx="60" cy="36" r="3.25" fill="#2F6B46" />
  <path
    d="M54 58C54 54.6863 56.6863 52 60 52H72C75.3137 52 78 54.6863 78 58V60C78 63.3137 75.3137 66 72 66H60C56.6863 66 54 63.3137 54 60V58Z"
    fill="#FFFFFF"
    fill-opacity="0.22"
  />
</svg>
